# xmcd
#
# Track frame offsets: 
#        150
#        17235
#        29955
#        51673
#        68784
#        85510
#        102000
#        131356
#        148552
#        164121
#        177955
#        198007
#        218073
#        237396
#        253969
#        275642
#        300102
#        315751
#        337346
#
# Disc length: 4753 seconds
#
# Revision: 0
# Processed by: cddbd v1.5.2PL0 Copyright (c) Steve Scherf et al.
# Submitted via: ExactAudioCopy v1.1
#
DISCID=17128f13
DTITLE=Various Artist - Nostalgie - Le Meilleur Du Top 1000 (2015) - CD 5
DYEAR=2015
DGENRE=Top 40
TTITLE0=Manau - La Tribu De Dana
TTITLE1=Ben E. King - Stand By Me
TTITLE2=Communards With Sarah Jane Morris - Don't Leave Me This Way
TTITLE3=Pascal Obispo - Millésime
TTITLE4=Kajagoogoo - Too Shy
TTITLE5=Véronique Sanson - Amoureuse
TTITLE6=Billy Paul - Your Song
TTITLE7=Patrick Swayze Feat. Wendy Fraser - She's Like The Wind
TTITLE8=Images - Les Démons De Minuit
TTITLE9=Yazoo - Don't Go
TTITLE10=Bonnie Tyler - Total Eclipse Of The Heart
TTITLE11=Haddaway - What Is Love
TTITLE12=Roxette - It Must Have Been Love
TTITLE13=Cher - Strong Enough
TTITLE14=Tears For Fears - Shout
TTITLE15=Michel Sardou - Je Vais T'Aimer
TTITLE16=Orchestral Manoeuvres In The Dark - Enola Gay
TTITLE17=Calogero - Yalla
TTITLE18=Joe Cocker - You Can Leave Your Hat On
EXTD=
EXTT0=
EXTT1=
EXTT2=
EXTT3=
EXTT4=
EXTT5=
EXTT6=
EXTT7=
EXTT8=
EXTT9=
EXTT10=
EXTT11=
EXTT12=
EXTT13=
EXTT14=
EXTT15=
EXTT16=
EXTT17=
EXTT18=
PLAYORDER=
